# Blender 5.0.1
# www.blender.org
o penguin_foot_right
v 0.000000 -3.000000 0.000000
v -0.000000 7.000000 0.000000
v -6.000000 7.000000 -3.000000
v 3.000000 -4.000000 -3.000000
v 6.000000 7.000000 -3.000000
v 1.999999 9.000000 -3.000000
v 3.999999 12.000000 -2.999999
v -4.000001 12.000000 -2.999999
v -2.000001 9.000000 -3.000000
v -2.999999 -4.000000 -3.000000
v -0.000001 14.000000 -2.999999
vn -0.0000 -0.0000 -1.0000
vn -0.0000 -0.9487 0.3162
vn -0.6645 -0.1812 0.7249
vn 0.6645 -0.1812 0.7249
vn -0.4472 -0.0000 0.8944
vn 0.4472 -0.0000 0.8944
vn -0.4402 0.1761 0.8805
vn 0.8182 0.5455 -0.1818
vn -0.7017 0.2807 0.6549
vn 0.7017 0.2807 0.6549
vn -0.8182 0.5455 -0.1818
vn 0.4402 0.1761 0.8805
vt 0.984375 0.453125
vt 0.984375 0.437500
vt 0.984375 0.421875
s 0
f 8/1/1 9/2/1 3/2/1
f 9/2/1 11/1/1 6/2/1
f 6/2/1 7/1/1 5/2/1
f 9/2/1 10/3/1 3/2/1
f 5/2/1 4/3/1 6/2/1
f 9/2/1 6/2/1 10/3/1
f 10/3/1 6/2/1 4/3/1
f 4/3/2 1/3/2 10/3/2
f 3/2/3 10/3/3 1/3/3
f 4/3/4 5/2/4 1/3/4
f 3/2/5 1/3/5 2/2/5
f 2/2/6 1/3/6 5/2/6
f 3/2/7 2/2/7 8/1/7
f 8/1/8 2/2/8 9/2/8
f 9/2/9 2/2/9 11/1/9
f 6/2/10 11/1/10 2/2/10
f 6/2/11 2/2/11 7/1/11
f 7/1/12 2/2/12 5/2/12
