# Blender 5.0.1
# www.blender.org
o penguin_flipper_left
v 0.000000 -6.000000 0.000000
v -7.000000 -5.000000 -5.000000
v -3.000000 4.000000 0.000000
v -9.000000 -4.000000 -14.000000
v -8.000000 3.000000 -11.000000
v -4.000000 -7.000000 -7.000000
v -0.000001 6.000000 0.000000
v -3.000000 6.000000 -5.000000
v 3.000000 -1.000000 2.000000
vn -0.5887 -0.1766 0.7888
vn -0.9742 0.0443 0.2214
vn -0.5419 -0.8400 0.0271
vn 0.8676 0.0097 -0.4972
vn -0.7081 0.6556 0.2623
vn -0.9013 0.1822 0.3931
vn 0.8575 -0.0000 -0.5145
vn 0.8309 0.1146 -0.5444
vn -0.3608 -0.8720 0.3308
vn 0.7571 0.0421 -0.6519
vn -0.5263 0.7895 0.3158
vn -0.4032 -0.1209 0.9071
vn -0.1431 0.2147 0.9661
vn 0.5547 -0.0000 -0.8321
vt 0.015625 0.015625
s 0
f 2/1/1 1/1/1 3/1/1
f 4/1/2 2/1/2 5/1/2
f 2/1/3 4/1/3 6/1/3
f 6/1/4 8/1/4 1/1/4
f 3/1/5 8/1/5 5/1/5
f 3/1/6 5/1/6 2/1/6
f 7/1/7 1/1/7 8/1/7
f 5/1/8 6/1/8 4/1/8
f 6/1/9 1/1/9 2/1/9
f 6/1/10 5/1/10 8/1/10
f 8/1/11 3/1/11 7/1/11
f 3/1/12 1/1/12 9/1/12
f 7/1/13 3/1/13 9/1/13
f 7/1/14 9/1/14 1/1/14
