# Blender 5.0.1
# www.blender.org
o penguin_glasses_v3
v -10.000000 7.000000 17.000000
v -10.000000 7.000000 19.000000
v -3.000000 11.000000 15.000000
v -3.000000 11.000000 17.000000
v -3.000000 12.000000 15.000000
v -3.000000 12.000000 17.000000
v -10.000000 8.000000 19.000000
v -10.000000 8.000000 17.000000
v 3.000000 11.000000 15.000000
v 3.000000 11.000000 17.000000
v 10.000000 7.000000 17.000000
v 10.000000 7.000000 19.000000
v 10.000000 8.000000 17.000000
v 10.000000 8.000000 19.000000
v 3.000000 12.000000 17.000000
v 3.000000 12.000000 15.000000
vn 0.2747 -0.0000 0.9615
vn 0.4961 -0.8682 -0.0000
vn -0.2747 -0.0000 -0.9615
vn 1.0000 -0.0000 -0.0000
vn -1.0000 -0.0000 -0.0000
vn -0.4961 0.8682 -0.0000
vn -0.2747 -0.0000 0.9615
vn -0.4961 -0.8682 -0.0000
vn 0.2747 -0.0000 -0.9615
vn 0.4961 0.8682 -0.0000
vt 0.984375 0.484375
vt 0.984375 0.484375
s 0
f 6/1/1 7/2/1 2/1/1
f 4/1/2 1/1/2 3/1/2
f 1/1/3 5/1/3 3/1/3
f 6/1/1 2/1/1 4/1/1
f 6/1/4 3/1/4 5/1/4
f 6/1/4 4/1/4 3/1/4
f 2/1/5 7/2/5 1/1/5
f 4/1/2 2/1/2 1/1/2
f 8/2/5 1/1/5 7/2/5
f 1/1/3 8/2/3 5/1/3
f 7/2/6 6/1/6 8/2/6
f 5/1/6 8/2/6 6/1/6
f 14/1/7 15/2/7 10/1/7
f 12/1/8 9/1/8 11/1/8
f 9/1/9 13/1/9 11/1/9
f 14/1/7 10/1/7 12/1/7
f 14/1/4 11/1/4 13/1/4
f 14/1/4 12/1/4 11/1/4
f 10/1/5 15/2/5 9/1/5
f 12/1/8 10/1/8 9/1/8
f 16/2/5 9/1/5 15/2/5
f 9/1/9 16/2/9 13/1/9
f 15/2/10 14/1/10 16/2/10
f 13/1/10 16/2/10 14/1/10
