# Blender 5.0.1
# www.blender.org
o penguin_head_v2
v -8.000000 -3.000000 20.000000
v -10.000000 6.000000 17.000000
v -12.000000 -3.000000 17.000000
v 0.000000 -2.000000 22.000000
v 0.000000 7.000000 21.000000
v 0.000000 -10.000000 19.000000
v 8.000000 -3.000000 20.000000
v 0.000000 -12.000000 13.000000
v 8.000000 -9.000000 15.000000
v 0.000000 -17.000000 13.000000
v 5.000000 -11.000000 11.000000
v -5.000000 -11.000000 11.000000
v 0.000000 -11.000000 6.000000
v -13.000000 -3.000000 9.000000
v -6.000000 -8.000000 5.000000
v -12.000000 7.000000 9.000000
v -10.000000 5.000000 5.000000
v 0.000000 14.000000 10.000000
v 0.000000 11.000000 5.000000
v 12.000000 -3.000000 17.000000
v 10.000000 6.000000 17.000000
v 13.000000 -3.000000 9.000000
v 12.000000 7.000000 9.000000
v 6.000000 -8.000000 5.000000
v 10.000000 5.000000 5.000000
v 0.000000 0.000000 0.000000
v -8.000000 -9.000000 15.000000
v 0.000000 12.000000 17.000000
vn -0.5947 0.1322 0.7930
vn -0.2537 0.1068 0.9614
vn 0.1868 -0.3449 0.9198
vn 0.2667 -0.9143 0.3048
vn 0.3714 -0.0000 0.9285
vn -0.5455 -0.6364 -0.5455
vn -0.6531 -0.7153 -0.2488
vn -0.8729 0.0873 -0.4801
vn -0.4159 0.7798 -0.4679
vn 0.5947 0.1322 0.7930
vn 0.9874 0.0987 0.1234
vn 0.5813 -0.1789 -0.7938
vn -0.0000 -0.5300 -0.8480
vn -0.8118 -0.5750 0.1015
vn -0.4210 -0.5807 0.6968
vn -0.2848 -0.9256 0.2492
vn 0.3510 0.5850 0.7312
vn 0.2410 0.4016 -0.8835
vn 0.8118 -0.5750 0.1015
vn 0.6531 -0.7153 -0.2488
vn -0.0000 -0.3162 -0.9487
vn -0.3714 -0.0000 0.9285
vn 0.4243 0.7071 -0.5657
vn 0.5046 0.8321 0.2302
vn -0.9422 0.2094 0.2617
vn -0.3812 0.2150 0.8992
vn 0.2537 0.1068 0.9614
vn 0.4210 -0.5807 0.6968
vn 0.2848 -0.9256 0.2492
vn 0.5455 -0.6364 -0.5455
vn -0.3665 -0.8552 -0.3665
vn -0.5813 -0.1789 -0.7938
vn -0.4243 0.7071 -0.5657
vn 0.4159 0.7798 -0.4679
vn 0.3812 0.2150 0.8992
vn 0.9422 0.2094 0.2617
vn 0.8729 0.0873 -0.4801
vn 0.5026 -0.1546 -0.8506
vn -0.5026 -0.1546 -0.8506
vn -0.9874 0.0987 0.1234
vn -0.4992 -0.5547 0.6656
vn -0.1868 -0.3449 0.9198
vn -0.6799 -0.7176 -0.1511
vn -0.2667 -0.9143 0.3048
vn -0.3510 0.5850 0.7312
vn -0.2410 0.4016 -0.8835
vn 0.4992 -0.5547 0.6656
vn 0.6799 -0.7176 -0.1511
vn 0.3665 -0.8552 -0.3665
vn -0.5046 0.8321 0.2302
vn -0.4997 0.8329 0.2380
vn 0.4997 0.8329 0.2380
vt 0.984375 0.734375
vt 0.500000 0.734375
vt 0.015625 0.734375
vt 0.015625 0.625000
vt 0.015625 0.626000
vt 0.984375 0.625000
vt 0.984375 0.515625
vt 0.984375 0.515625
vt 0.500000 0.515625
vt 0.500000 0.515625
vt 0.015625 0.515625
vt 0.500000 0.734375
s 0
f 1/1/1 2/1/1 3/1/1
f 4/1/2 5/2/2 1/1/2
f 6/3/3 7/3/3 4/3/3
f 8/4/4 9/4/4 6/3/4
f 10/4/5 11/5/5 8/4/5
f 12/6/6 13/7/6 10/6/6
f 14/7/7 15/8/7 12/6/7
f 16/7/8 17/7/8 14/7/8
f 18/9/9 19/10/9 16/7/9
f 20/3/10 21/3/10 7/3/10
f 22/11/11 23/11/11 20/3/11
f 24/11/12 25/11/12 22/11/12
f 15/8/13 26/10/13 24/7/13
f 27/6/14 3/1/14 14/7/14
f 6/1/15 1/1/15 27/6/15
f 8/6/16 27/6/16 12/6/16
f 21/3/17 28/12/17 5/2/17
f 25/11/18 26/10/18 19/10/18
f 22/11/19 20/3/19 9/4/19
f 24/11/20 22/11/20 11/5/20
f 15/8/21 24/7/21 13/7/21
f 8/6/22 12/6/22 10/6/22
f 19/10/23 23/11/23 25/11/23
f 23/11/24 18/9/24 21/3/24
f 16/7/25 3/1/25 2/1/25
f 2/1/26 1/1/26 5/2/26
f 5/2/27 4/3/27 7/3/27
f 7/3/28 6/3/28 9/4/28
f 9/4/29 8/4/29 11/5/29
f 11/5/30 10/4/30 13/11/30
f 13/7/31 12/6/31 15/8/31
f 15/8/32 14/7/32 17/7/32
f 17/7/33 16/7/33 19/10/33
f 19/10/34 18/9/34 23/11/34
f 5/2/35 7/3/35 21/3/35
f 21/3/36 20/3/36 23/11/36
f 23/11/37 22/11/37 25/11/37
f 25/11/38 24/11/38 26/10/38
f 26/10/39 15/8/39 17/7/39
f 16/7/40 14/7/40 3/1/40
f 3/1/41 27/6/41 1/1/41
f 1/1/42 6/1/42 4/1/42
f 14/7/43 12/6/43 27/6/43
f 27/6/44 8/6/44 6/1/44
f 2/1/45 5/2/45 28/12/45
f 17/7/46 19/10/46 26/10/46
f 7/3/47 9/4/47 20/3/47
f 9/4/48 11/5/48 22/11/48
f 11/5/49 13/11/49 24/11/49
f 18/9/50 16/7/50 2/1/50
f 18/9/51 2/1/51 28/12/51
f 21/3/52 18/9/52 28/12/52
