# Blender 5.0.1
# www.blender.org
o penguin_eyes_v2
v -10.000000 6.000000 17.000000
v -12.000000 7.000000 9.000000
v 0.000000 13.000000 9.000000
v 10.000000 6.000000 17.000000
v 12.000000 7.000000 9.000000
v 0.000000 12.000000 17.000000
vn 0.4364 0.8729 0.2182
vn -0.4364 0.8729 0.2182
vn -0.5116 0.8526 0.1066
vn 0.5116 0.8526 0.1066
vt 0.015625 0.515625
vt 0.500000 0.515625
vt 0.015625 0.734375
vt 0.984375 0.515625
vt 0.984375 0.734375
vt 0.500000 0.734375
s 0
f 5/1/1 3/2/1 4/3/1
f 3/2/2 2/4/2 1/5/2
f 3/2/3 1/5/3 6/6/3
f 4/3/4 3/2/4 6/6/4
