# Blender 5.2.0 LTS
# www.blender.org
o shark_front
v -17.000000 15.000000 -5.000000
v -17.000000 32.000000 -3.000000
v -42.000000 15.000000 -9.000000
v -17.000000 18.000000 -1.000000
v -16.000000 60.000000 9.000000
v 0.000000 64.000000 18.000000
v 13.000000 16.000000 17.000000
v 16.000000 60.000000 9.000000
v 0.000000 48.000000 -17.000000
v 13.000000 48.000000 -10.000000
v 0.000000 16.000000 21.000000
v -13.000000 16.000000 17.000000
v -18.000000 16.000000 2.000000
v 0.000000 16.000000 -21.000000
v 13.000000 65.000000 5.000000
v 17.000000 48.000000 5.000000
v 18.000000 16.000000 2.000000
v 0.000000 71.000000 4.000000
v 12.000000 62.000000 15.000000
v -13.000000 65.000000 6.000000
v -17.000000 48.000000 5.000000
v -13.000000 48.000000 -10.000000
v -19.000000 16.000000 -11.000000
v 0.000000 80.000000 11.000000
v -12.000000 62.000000 15.000000
v 19.000000 16.000000 -11.000000
v 0.000000 0.000000 19.000000
v -12.000000 0.000000 16.000000
v 12.000000 0.000000 16.000000
v -15.000000 0.000000 2.000000
v 15.000000 0.000000 2.000000
v -15.000000 0.000000 -8.000000
v 15.000000 0.000000 -8.000000
v 0.000000 0.000000 -19.000000
v 0.000000 18.000000 20.000000
v -3.000000 0.000000 18.000000
v 0.000000 13.000000 29.000000
v 0.000000 2.000000 39.000000
v 3.000000 0.000000 18.000000
v -2.000000 1.000000 23.000000
v 2.000000 1.000000 23.000000
v -30.000000 26.000000 -6.000000
v -27.000000 18.000000 -4.000000
v -28.000000 16.000000 -7.000000
v 17.000000 15.000000 -5.000000
v 17.000000 32.000000 -3.000000
v 42.000000 15.000000 -9.000000
v 17.000000 18.000000 -1.000000
v 30.000000 26.000000 -6.000000
v 27.000000 18.000000 -4.000000
v 28.000000 16.000000 -7.000000
v 0.000000 16.000000 10.000000
v 0.000000 60.000000 9.000000
v 0.000000 12.000000 -15.000000
v -1.000000 69.000000 3.000000
v -2.000000 69.000000 6.000000
v -3.000000 68.000000 3.000000
v -4.000000 68.000000 6.000000
v -5.000000 67.000000 3.000000
v -6.000000 67.000000 6.000000
v -7.000000 66.000000 3.000000
v -8.000000 66.000000 6.000000
v -9.000000 65.000000 3.000000
v -10.000000 65.000000 6.000000
v -11.000000 64.000000 3.000000
v -12.000000 64.000000 6.000000
v 0.000000 70.000000 6.000000
v -12.000000 63.000000 3.000000
v -13.000000 62.000000 6.000000
v -13.000000 61.000000 3.000000
v -13.000000 60.000000 6.000000
v -13.000000 59.000000 3.000000
v -13.000000 58.000000 6.000000
v -13.000000 57.000000 3.000000
v -14.000000 56.000000 6.000000
v -14.000000 55.000000 3.000000
v -14.000000 54.000000 6.000000
v -14.000000 53.000000 3.000000
v -14.000000 52.000000 6.000000
v 11.000000 64.000000 3.000000
v -13.000000 53.000000 6.000000
v -11.000000 64.000000 6.000000
v -13.000000 55.000000 6.000000
v -12.000000 59.000000 6.000000
v -12.000000 61.000000 6.000000
v -13.000000 57.000000 6.000000
v -12.000000 63.000000 6.000000
v -9.000000 65.000000 6.000000
v -7.000000 66.000000 6.000000
v -5.000000 67.000000 6.000000
v -3.000000 68.000000 6.000000
v -1.000000 69.000000 6.000000
v 1.000000 69.000000 3.000000
v 2.000000 69.000000 6.000000
v 3.000000 68.000000 3.000000
v 4.000000 68.000000 6.000000
v 5.000000 67.000000 3.000000
v 6.000000 67.000000 6.000000
v 7.000000 66.000000 3.000000
v 8.000000 66.000000 6.000000
v 9.000000 65.000000 3.000000
v 10.000000 65.000000 6.000000
v 12.000000 64.000000 6.000000
v 12.000000 63.000000 3.000000
v 13.000000 62.000000 6.000000
v 13.000000 61.000000 3.000000
v 13.000000 60.000000 6.000000
v 13.000000 59.000000 3.000000
v 13.000000 58.000000 6.000000
v 13.000000 57.000000 3.000000
v 14.000000 56.000000 6.000000
v 14.000000 55.000000 3.000000
v 14.000000 54.000000 6.000000
v 14.000000 53.000000 3.000000
v 14.000000 52.000000 6.000000
v 13.000000 53.000000 6.000000
v 11.000000 64.000000 6.000000
v 13.000000 55.000000 6.000000
v 12.000000 59.000000 6.000000
v 12.000000 61.000000 6.000000
v 13.000000 57.000000 6.000000
v 12.000000 63.000000 6.000000
v 9.000000 65.000000 6.000000
v 7.000000 66.000000 6.000000
v 5.000000 67.000000 6.000000
v 3.000000 68.000000 6.000000
v 1.000000 69.000000 6.000000
v -7.000000 -10.000000 12.000000
v 7.000000 -10.000000 12.000000
v -10.000000 -10.000000 2.000000
v 10.000000 -10.000000 2.000000
v -9.000000 -10.000000 -5.000000
v 9.000000 -10.000000 -5.000000
v 0.000000 -10.000000 -11.000000
v 0.000000 -10.000000 15.000000
v 0.000000 -14.000000 2.000000
v -18.000000 30.000000 2.000000
v -13.000000 30.000000 16.000000
v 18.000000 30.000000 2.000000
v 13.000000 30.000000 16.000000
v 0.000000 30.000000 20.000000
vn -0.0207 -0.8287 0.5594
vn -0.1772 -0.7873 0.5905
vn -0.2805 0.1325 0.9507
vn -0.2837 0.3844 0.8785
vn 0.2837 0.3844 0.8785
vn -0.7566 0.5740 0.3131
vn 0.7566 0.5740 0.3131
vn 0.7775 0.6047 0.1728
vn -0.7723 0.5957 0.2206
vn -0.3752 0.5691 -0.7317
vn 0.3254 0.5805 -0.7464
vn 0.8897 0.2094 -0.4056
vn -0.8518 0.2282 -0.4715
vn 0.9415 0.0240 0.3362
vn 0.9487 -0.0000 0.3162
vn -0.9415 0.0240 0.3362
vn -0.9487 -0.0000 0.3162
vn -0.4627 0.1142 -0.8791
vn 0.4627 0.1142 -0.8791
vn 0.4713 0.1094 -0.8752
vn -0.4713 0.1094 -0.8752
vn -0.2920 -0.1186 0.9490
vn 0.2920 -0.1186 0.9490
vn 0.2418 -0.0756 0.9674
vn -0.2418 -0.0756 0.9674
vn -0.9457 -0.0788 0.3152
vn -0.9618 -0.1803 0.2061
vn 0.9457 -0.0788 0.3152
vn 0.9618 -0.1803 0.2061
vn -0.9801 -0.1838 0.0754
vn -0.9701 -0.2425 -0.0000
vn 0.9801 -0.1838 0.0754
vn 0.9701 -0.2425 -0.0000
vn -0.4629 -0.1099 -0.8796
vn -0.5666 -0.2865 -0.7726
vn 0.4629 -0.1099 -0.8796
vn 0.5666 -0.2865 -0.7726
vn -0.0000 -0.9981 0.0624
vn -0.9875 0.1062 0.1168
vn 0.9875 0.1062 0.1168
vn -0.0000 -0.9806 0.1961
vn -0.9912 0.1245 0.0440
vn -0.9914 0.1235 0.0442
vn -0.9914 0.1230 0.0443
vn 0.9914 0.1235 0.0442
vn 0.9912 0.1245 0.0440
vn 0.9914 0.1231 0.0443
vn -0.9652 0.1514 0.2134
vn -0.9648 0.1552 0.2125
vn -0.9650 0.1526 0.2131
vn 0.9650 0.1526 0.2131
vn 0.9647 0.1553 0.2125
vn 0.9652 0.1514 0.2134
vn -0.3339 0.1089 0.9363
vn 0.1316 0.1247 -0.9834
vn -0.2847 0.1356 0.9490
vn -0.1784 -0.7902 0.5863
vn 0.1652 0.1308 -0.9775
vn 0.1878 0.1148 -0.9755
vn 0.0207 -0.8287 0.5594
vn 0.1772 -0.7873 0.5905
vn 0.2805 0.1325 0.9507
vn 0.3339 0.1089 0.9363
vn -0.1316 0.1247 -0.9834
vn 0.2847 0.1356 0.9490
vn 0.1784 -0.7902 0.5863
vn -0.1652 0.1308 -0.9775
vn -0.1878 0.1148 -0.9755
vn -0.1201 -0.4108 -0.9038
vn 0.0509 -0.4133 -0.9092
vn -0.2710 -0.0638 -0.9605
vn 0.2263 0.0040 -0.9740
vn -0.4735 0.0489 0.8794
vn 0.4735 0.0489 0.8794
vn 0.2437 -0.0220 -0.9696
vn -0.2437 -0.0220 -0.9696
vn 0.8854 0.4589 -0.0734
vn -0.8854 0.4589 -0.0734
vn 0.9221 0.2988 0.2459
vn -0.9221 0.2988 0.2459
vn -0.4423 0.8847 -0.1474
vn -1.0000 -0.0000 -0.0000
vn -0.8847 0.4423 -0.1474
vn 0.6882 -0.6882 -0.2294
vn 0.6882 0.6882 -0.2294
vn -0.0000 -1.0000 -0.0000
vn 0.7071 -0.7071 -0.0000
vn 1.0000 -0.0000 -0.0000
vn 0.4423 0.8847 -0.1474
vn 0.8847 0.4423 -0.1474
vn -0.6882 -0.6882 -0.2294
vn -0.6882 0.6882 -0.2294
vn -0.7071 -0.7071 -0.0000
vn -0.2261 -0.3618 0.9044
vn 0.2261 -0.3618 0.9044
vn -0.3430 -0.4917 0.8004
vn 0.3430 -0.4917 0.8004
vn 0.8639 -0.4319 0.2592
vn 0.8485 -0.4970 0.1818
vn -0.8485 -0.4970 0.1818
vn -0.8639 -0.4319 0.2592
vn 0.8944 -0.4472 -0.0000
vn -0.8944 -0.4472 -0.0000
vn -0.8352 -0.5369 -0.1193
vn 0.8352 -0.5369 -0.1193
vn 0.4793 -0.5033 -0.7190
vn 0.4969 -0.5421 -0.6776
vn -0.4969 -0.5421 -0.6776
vn -0.4793 -0.5033 -0.7190
vn -0.1250 -0.9483 0.2918
vn -0.3691 -0.9228 0.1107
vn 0.1250 -0.9483 0.2918
vn 0.3691 -0.9228 0.1107
vn 0.1924 -0.9379 -0.2886
vn -0.1924 -0.9379 -0.2886
vn -0.3709 -0.9272 -0.0530
vn 0.3709 -0.9272 -0.0530
vn 0.9971 -0.0000 0.0767
vn -0.9971 -0.0000 0.0767
vn -0.9743 0.1866 -0.1260
vn 0.9743 0.1866 -0.1260
vn 0.9618 0.0962 -0.2565
vn -0.9618 0.0962 -0.2565
vn 0.2934 0.0681 0.9536
vn -0.2934 0.0681 0.9536
vn 0.9417 -0.0037 0.3363
vn 0.8379 0.0432 0.5442
vn 0.9512 -0.0233 0.3077
vn -0.8379 0.0432 0.5442
vn -0.9512 -0.0233 0.3077
vn -0.9417 -0.0037 0.3363
vn 0.2510 0.0568 0.9663
vn 0.2939 0.0390 0.9551
vn -0.2510 0.0568 0.9663
vn -0.2939 0.0390 0.9551
vt 0.953125 0.906250
vt 0.953125 0.921875
vt 0.875000 0.906250
vt 1.000000 0.906250
vt 1.000000 0.921875
vt 0.937500 0.984375
vt 1.000000 1.000000
vt 0.187500 0.906250
vt 0.250000 0.906250
vt 0.250000 1.000000
vt 0.312500 0.906250
vt 0.156250 1.000000
vt 0.125000 0.906250
vt 0.375000 0.906250
vt 0.343750 1.000000
vt 0.406250 1.000000
vt 0.437500 0.906250
vt 0.093750 1.000000
vt 0.062500 0.906250
vt 0.000000 1.000000
vt 0.000000 0.906250
vt 0.500000 0.906250
vt 0.500000 1.000000
vt 0.375000 0.843750
vt 0.125000 0.843750
vt 0.375000 0.750000
vt 0.312500 0.750000
vt 0.312500 0.656250
vt 0.375000 0.656250
vt 0.125000 0.750000
vt 0.187500 0.656250
vt 0.187500 0.750000
vt 0.125000 0.656250
vt 0.062500 0.656250
vt 0.062500 0.843750
vt 0.000000 0.656250
vt 0.437500 0.843750
vt 0.437500 0.656250
vt 0.500000 0.656250
vt 0.500000 0.843750
vt 0.000000 0.843750
vt 0.250000 0.562500
vt 0.250000 0.656250
vt 0.312500 0.562500
vt 0.187500 0.562500
vt 0.125000 0.562500
vt 0.375000 0.562500
vt 0.062500 0.562500
vt 0.437500 0.562500
vt 0.000000 0.562500
vt 0.500000 0.562500
vt 0.968750 0.546875
vt 0.968750 0.578125
vt 0.875000 0.562500
vt 0.937500 0.484375
vt 0.875000 0.578125
vt 0.937500 0.640625
vt 1.000000 0.546875
vt 1.000000 0.453125
vt 1.000000 0.671875
vt 1.000000 0.578125
vt 0.937500 0.828125
vt 1.000000 0.812500
vt 0.921875 0.734375
vt 1.000000 0.734375
vt 0.921875 0.750000
vt 0.875000 0.750000
vt 0.875000 0.734375
vt 0.937500 0.812500
vt 0.875000 0.828125
vt 0.937500 0.656250
vt 0.875000 0.640625
vt 0.531250 0.921875
vt 0.562500 0.859375
vt 0.593750 0.921875
vt 0.562500 0.984375
vt 0.625000 0.859375
vt 0.625000 0.984375
vt 0.843750 0.921875
vt 0.750000 0.921875
vt 0.812500 0.859375
vt 0.812500 0.984375
vt 0.687500 0.921875
vt 0.687500 0.984375
vt 0.687500 0.859375
vt 0.750000 0.984375
vt 0.750000 0.859375
vt 0.984375 0.359375
vt 0.984375 0.390625
vt 0.250000 0.500000
vt 0.187500 0.500000
vt 0.312500 0.500000
vt 0.375000 0.500000
vt 0.125000 0.500000
vt 0.062500 0.500000
vt 0.437500 0.500000
vt 0.500000 0.500000
vt 0.000000 0.500000
vt 0.250000 0.437500
vt 0.156250 0.437500
vt 0.343750 0.437500
vt 0.468750 0.437500
vt 0.031250 0.437500
vt 0.093750 0.437500
vt 0.406250 0.437500
vt 0.250000 0.750000
vt 1.000000 0.000000
vt 0.968750 0.250000
vt 0.734375 0.000000
vt 0.890625 0.531250
vt 0.734375 0.531250
vt 0.578125 0.531250
vt 0.500000 0.250000
vt 0.468750 -0.000000
s 0
f 44/1/1 43/2/1 3/3/1
f 43/2/2 1/4/2 4/5/2
f 42/6/3 43/2/3 2/7/3
f 25/8/4 6/9/4 24/10/4
f 19/11/5 24/10/5 6/9/5
f 25/8/6 24/12/6 5/13/6
f 8/14/7 24/15/7 19/11/7
f 24/16/8 8/14/8 15/17/8
f 5/13/9 24/18/9 20/19/9
f 20/19/10 24/20/10 18/21/10
f 15/17/11 18/22/11 24/23/11
f 16/24/12 15/17/12 8/14/12
f 20/19/13 21/25/13 5/13/13
f 139/26/14 140/27/14 7/28/14
f 17/29/15 139/26/15 7/28/15
f 137/30/16 12/31/16 138/32/16
f 13/33/17 12/31/17 137/30/17
f 23/34/18 22/35/18 14/36/18
f 10/37/19 26/38/19 14/39/19
f 14/39/20 9/40/20 10/37/20
f 14/36/21 22/35/21 9/41/21
f 27/42/22 11/43/22 12/31/22
f 11/43/23 27/42/23 7/28/23
f 7/28/24 27/42/24 29/44/24
f 27/42/25 12/31/25 28/45/25
f 12/31/26 13/33/26 28/45/26
f 30/46/27 28/45/27 13/33/27
f 7/28/28 29/44/28 17/29/28
f 31/47/29 17/29/29 29/44/29
f 13/33/30 23/34/30 30/46/30
f 32/48/31 30/46/31 23/34/31
f 17/29/32 31/47/32 26/38/32
f 33/49/33 26/38/33 31/47/33
f 23/34/34 14/36/34 34/50/34
f 32/48/35 23/34/35 34/50/35
f 26/38/36 34/51/36 14/39/36
f 33/49/37 34/51/37 26/38/37
f 40/52/38 41/53/38 38/54/38
f 38/54/39 37/55/39 40/52/39
f 38/56/40 41/53/40 37/57/40
f 36/58/41 41/53/41 40/52/41
f 35/59/42 40/52/43 37/55/44
f 41/53/45 35/60/46 37/57/47
f 35/59/48 36/58/49 40/52/50
f 41/53/51 39/61/52 35/60/53
f 36/58/41 39/61/41 41/53/41
f 3/3/54 43/2/54 42/6/54
f 42/62/55 44/1/55 3/3/55
f 43/2/56 4/5/56 2/7/56
f 43/2/57 44/1/57 1/4/57
f 42/62/58 2/63/58 44/1/58
f 2/63/59 1/4/59 44/1/59
f 51/64/60 47/65/60 50/66/60
f 50/66/61 48/67/61 45/68/61
f 49/69/62 46/70/62 50/66/62
f 47/65/63 49/69/63 50/66/63
f 49/71/64 47/65/64 51/64/64
f 50/66/65 46/70/65 48/67/65
f 50/66/66 45/68/66 51/64/66
f 49/71/67 51/64/67 46/72/67
f 46/72/68 51/64/68 45/68/68
f 18/73/69 15/74/69 53/75/69
f 20/76/70 18/73/70 53/75/70
f 15/74/71 16/77/71 53/75/71
f 20/76/72 53/75/72 21/78/72
f 9/79/73 54/80/73 10/81/73
f 9/79/74 22/82/74 54/80/74
f 53/75/75 52/83/75 21/78/75
f 53/75/76 16/77/76 52/83/76
f 54/80/77 21/84/77 52/83/77
f 54/80/78 52/83/78 16/85/78
f 22/86/79 21/84/79 54/80/79
f 10/87/80 54/80/80 16/85/80
f 55/88/81 56/89/81 67/89/81
f 78/88/82 79/89/82 77/89/82
f 76/88/82 77/89/82 75/89/82
f 74/88/83 75/89/83 73/89/83
f 72/88/82 73/89/82 71/89/82
f 70/88/82 71/89/82 69/89/82
f 68/88/83 69/89/83 66/89/83
f 65/88/81 66/89/81 64/89/81
f 63/88/81 64/89/81 62/89/81
f 61/88/81 62/89/81 60/89/81
f 59/88/81 60/89/81 58/89/81
f 57/88/81 58/89/81 56/89/81
f 79/89/84 78/88/84 81/89/84
f 78/88/85 77/89/85 81/89/85
f 66/89/86 65/88/86 82/89/86
f 65/88/87 64/89/87 82/89/87
f 77/89/84 76/88/84 83/89/84
f 76/88/85 75/89/85 83/89/85
f 75/89/87 74/88/87 86/89/87
f 74/88/88 73/89/88 86/89/88
f 73/89/84 72/88/84 84/89/84
f 72/88/85 71/89/85 84/89/85
f 71/89/84 70/88/84 85/89/84
f 70/88/85 69/89/85 85/89/85
f 69/89/87 68/88/87 87/89/87
f 68/88/88 66/89/88 87/89/88
f 64/89/86 63/88/86 88/89/86
f 63/88/87 62/89/87 88/89/87
f 62/89/86 61/88/86 89/89/86
f 61/88/87 60/89/87 89/89/87
f 60/89/86 59/88/86 90/89/86
f 59/88/87 58/89/87 90/89/87
f 58/89/86 57/88/86 91/89/86
f 57/88/87 56/89/87 91/89/87
f 56/89/86 55/88/86 92/89/86
f 92/89/87 55/88/87 67/89/87
f 93/88/89 67/89/89 94/89/89
f 114/88/88 113/89/88 115/89/88
f 112/88/88 111/89/88 113/89/88
f 110/88/90 109/89/90 111/89/90
f 108/88/88 107/89/88 109/89/88
f 106/88/88 105/89/88 107/89/88
f 104/88/90 103/89/90 105/89/90
f 80/88/89 102/89/89 103/89/89
f 101/88/89 100/89/89 102/89/89
f 99/88/89 98/89/89 100/89/89
f 97/88/89 96/89/89 98/89/89
f 95/88/89 94/89/89 96/89/89
f 115/89/91 116/89/91 114/88/91
f 114/88/92 116/89/92 113/89/92
f 103/89/86 117/89/86 80/88/86
f 80/88/93 117/89/93 102/89/93
f 113/89/91 118/89/91 112/88/91
f 112/88/92 118/89/92 111/89/92
f 111/89/93 121/89/93 110/88/93
f 110/88/82 121/89/82 109/89/82
f 109/89/91 119/89/91 108/88/91
f 108/88/92 119/89/92 107/89/92
f 107/89/91 120/89/91 106/88/91
f 106/88/92 120/89/92 105/89/92
f 105/89/93 122/89/93 104/88/93
f 104/88/82 122/89/82 103/89/82
f 102/89/86 123/89/86 101/88/86
f 101/88/93 123/89/93 100/89/93
f 100/89/86 124/89/86 99/88/86
f 99/88/93 124/89/93 98/89/93
f 98/89/86 125/89/86 97/88/86
f 97/88/93 125/89/93 96/89/93
f 96/89/86 126/89/86 95/88/86
f 95/88/93 126/89/93 94/89/93
f 94/89/86 127/89/86 93/88/86
f 127/89/93 67/89/93 93/88/93
f 27/42/94 28/45/94 135/90/94
f 27/42/95 135/90/95 29/44/95
f 128/91/96 135/90/96 28/45/96
f 129/92/97 29/44/97 135/90/97
f 31/47/98 129/92/98 131/93/98
f 29/44/99 129/92/99 31/47/99
f 28/45/100 30/46/100 128/91/100
f 130/94/101 128/91/101 30/46/101
f 31/47/102 131/93/102 33/49/102
f 30/46/103 32/48/103 130/94/103
f 132/95/104 130/94/104 32/48/104
f 133/96/105 33/49/105 131/93/105
f 134/97/106 33/49/106 133/96/106
f 34/51/107 33/49/107 134/97/107
f 34/50/108 134/98/108 32/48/108
f 132/95/109 32/48/109 134/98/109
f 128/91/110 136/99/110 135/90/110
f 128/91/111 130/94/111 136/100/111
f 135/90/112 136/99/112 129/92/112
f 131/93/113 129/92/113 136/101/113
f 133/96/114 136/102/114 134/97/114
f 134/98/115 136/103/115 132/95/115
f 130/94/116 132/95/116 136/104/116
f 131/93/117 136/105/117 133/96/117
f 17/29/118 26/38/118 139/26/118
f 13/33/119 137/30/119 23/34/119
f 23/34/120 137/30/120 22/35/120
f 26/38/121 10/37/121 139/26/121
f 10/37/122 16/24/122 139/26/122
f 22/35/123 137/30/123 21/25/123
f 7/28/124 140/27/124 11/43/124
f 12/31/125 11/43/125 138/32/125
f 11/43/125 141/106/125 138/32/125
f 11/43/124 140/27/124 141/106/124
f 139/107/126 16/108/126 140/109/126
f 8/110/127 19/111/127 140/109/127
f 16/108/128 8/110/128 140/109/128
f 25/111/129 5/112/129 138/109/129
f 21/113/130 138/109/130 5/112/130
f 138/109/131 21/113/131 137/114/131
f 19/11/132 6/9/132 141/106/132
f 140/27/133 19/11/133 141/106/133
f 25/8/134 141/106/134 6/9/134
f 138/32/135 141/106/135 25/8/135
