# Blender 5.1.1
# www.blender.org
o shark_back
v 12.000000 0.000000 16.000000
v -4.000000 -56.000000 8.000000
v 3.000000 -56.000000 6.000000
v 0.000000 -56.000000 4.000000
v -10.000000 -16.000000 14.000000
v 0.000000 -56.000000 11.000000
v 0.000000 -17.000000 17.000000
v 0.000000 0.000000 19.000000
v -12.000000 0.000000 16.000000
v -11.000000 -15.000000 -1.000000
v -15.000000 0.000000 2.000000
v 0.000000 0.000000 -19.000000
v 0.000000 -79.000000 25.000000
v 0.000000 -71.000000 27.000000
v 1.000000 -77.000000 28.000000
v 0.000000 -80.000000 34.000000
v -1.000000 -77.000000 28.000000
v 11.000000 -15.000000 -1.000000
v 15.000000 0.000000 2.000000
v -15.000000 0.000000 -8.000000
v 2.000000 -74.000000 22.000000
v -2.000000 -74.000000 22.000000
v 10.000000 -16.000000 14.000000
v 0.000000 -70.000000 -15.000000
v -3.000000 -56.000000 6.000000
v 2.000000 -67.000000 7.000000
v 2.000000 -68.000000 -4.000000
v -2.000000 -68.000000 -4.000000
v 4.000000 -56.000000 8.000000
v 0.000000 -19.000000 -15.000000
v 15.000000 0.000000 -8.000000
v -2.000000 -67.000000 7.000000
v 0.000000 -30.000000 14.000000
v -2.000000 -39.000000 13.000000
v 0.000000 -37.000000 18.000000
v 2.000000 -39.000000 13.000000
v 0.000000 -40.000000 -4.000000
v 2.000000 -46.000000 1.000000
v 0.000000 -48.000000 -4.000000
v -2.000000 -46.000000 1.000000
v 0.000000 -17.000000 -13.000000
v -7.000000 -26.000000 -16.000000
v 0.000000 -25.000000 -10.000000
v 7.000000 -26.000000 -16.000000
v 6.000000 10.000000 11.000000
v 10.000000 10.000000 -1.000000
v 0.000000 10.000000 -13.000000
v -10.000000 10.000000 -1.000000
v -6.000000 10.000000 11.000000
v 0.000000 10.000000 15.000000
v 0.000000 10.000000 0.000000
vn 0.2981 -0.1550 0.9419
vn 0.2410 -0.1134 0.9639
vn -0.2410 -0.1134 0.9639
vn -0.2981 -0.1550 0.9419
vn -0.9672 -0.1468 0.2073
vn 0.9672 -0.1468 0.2073
vn -0.9628 -0.2660 0.0465
vn 0.9628 -0.2660 0.0465
vn -0.9662 -0.2577 -0.0000
vn 0.9662 -0.2577 -0.0000
vn -0.5830 -0.1674 -0.7950
vn 0.5830 -0.1674 -0.7950
vn 0.7660 -0.4281 -0.4796
vn -0.7660 -0.4281 -0.4796
vn -0.5101 -0.3929 -0.7651
vn 0.7948 -0.2495 -0.5532
vn -0.7948 -0.2495 -0.5532
vn 0.5101 -0.3929 -0.7651
vn -0.9862 -0.1562 0.0553
vn 0.8675 -0.2433 -0.4338
vn 0.9862 -0.1562 0.0553
vn -0.8675 -0.2433 -0.4338
vn -0.5872 -0.2055 0.7829
vn 0.5872 -0.2055 0.7829
vn -0.2976 -0.1452 0.9436
vn 0.2976 -0.1452 0.9436
vn -0.8878 -0.1211 -0.4439
vn 0.8878 -0.1211 -0.4439
vn -0.9959 -0.0898 0.0082
vn 0.9959 -0.0898 0.0082
vn -0.9782 0.0786 -0.1921
vn 0.9782 0.0786 -0.1921
vn 0.3678 0.7486 -0.5516
vn -0.3678 0.7486 -0.5516
vn -0.9820 -0.1713 -0.0799
vn 0.9820 -0.1713 -0.0799
vn -0.0000 -0.9839 0.1789
vn 0.9450 0.1289 0.3007
vn -0.4564 0.6491 0.6085
vn -0.9450 0.1289 0.3007
vn 0.4564 0.6491 0.6085
vn 0.9452 0.2005 0.2578
vn -0.9452 0.2005 0.2578
vn -0.0000 -0.8944 -0.4472
vn -0.9183 -0.3935 -0.0437
vn 0.9183 -0.3935 -0.0437
vn -0.0000 -0.5145 -0.8575
vn -0.0000 -0.8321 0.5547
vn -0.0000 -0.9062 -0.4229
vn -0.0000 -0.9959 0.0905
vn -0.9363 0.1742 0.3049
vn -0.0000 -0.9285 0.3714
vn 0.9363 0.1742 0.3049
vn 0.9285 -0.0000 -0.3714
vn -0.9285 -0.0000 -0.3714
vn -0.5183 0.6047 -0.6047
vn 0.6000 -0.5122 -0.6146
vn -0.6489 0.2672 0.7125
vn 0.6489 0.2672 0.7125
vn -0.6000 -0.5122 -0.6146
vn 0.5183 0.6047 -0.6047
vn 0.2261 0.3618 0.9044
vn -0.2261 0.3618 0.9044
vn -0.4440 0.5994 0.6660
vn 0.4440 0.5994 0.6660
vn -0.5323 0.4355 -0.7259
vn 0.5323 0.4355 -0.7259
vn -0.5905 0.6397 -0.4921
vn 0.5905 0.6397 -0.4921
vn 0.8944 0.4472 -0.0000
vn -0.8944 0.4472 -0.0000
vn -0.8043 0.5687 0.1723
vn 0.8043 0.5687 0.1723
vn 0.8245 0.4947 0.2748
vn -0.8245 0.4947 0.2748
vn -0.0000 1.0000 -0.0000
vt 0.312500 0.437500
vt 0.250000 0.375000
vt 0.312500 0.375000
vt 0.250000 0.437500
vt 0.187500 0.437500
vt 0.187500 0.375000
vt 0.125000 0.437500
vt 0.375000 0.437500
vt 0.125000 0.375000
vt 0.375000 0.375000
vt 0.062500 0.437500
vt 0.437500 0.437500
vt 0.000000 0.437500
vt 0.062500 0.375000
vt 0.437500 0.375000
vt 0.500000 0.437500
vt 0.093750 0.218750
vt 0.125000 0.218750
vt 0.375000 0.218750
vt 0.406250 0.218750
vt 0.156250 0.218750
vt 0.343750 0.218750
vt 0.250000 0.218750
vt 0.218750 0.218750
vt 0.281250 0.218750
vt 0.125000 0.156250
vt 0.375000 0.156250
vt 0.078125 0.140625
vt 0.421875 0.140625
vt 0.031250 0.125000
vt 0.468750 0.125000
vt 0.218750 0.125000
vt 0.281250 0.125000
vt 0.031250 0.109375
vt 0.000000 0.093750
vt 0.031250 0.078125
vt 0.250000 0.125000
vt 0.281250 0.093750
vt 0.218750 0.093750
vt 0.250000 0.062500
vt 0.312500 0.093750
vt 0.343750 0.078125
vt 0.343750 0.109375
vt 0.406250 0.078125
vt 0.375000 0.093750
vt 0.406250 0.109375
vt 0.093750 0.109375
vt 0.187500 0.078125
vt 0.187500 0.109375
vt 0.093750 0.078125
vt 0.359375 0.000000
vt 0.359375 0.031250
vt 0.328125 0.000000
vt 0.375000 0.031250
vt 0.390625 0.000000
vt 0.390625 0.031250
vt 0.421875 0.000000
vt 0.140625 0.031250
vt 0.140625 0.000000
vt 0.171875 0.031250
vt 0.125000 0.000000
vt 0.109375 0.031250
vt 0.109375 0.000000
vt 0.078125 0.031250
vt 0.031250 0.328125
vt 0.000000 0.328125
vt 0.031250 0.312500
vt 0.000000 0.234375
vt 0.031250 0.250000
vt 0.031250 0.218750
vt 0.000000 0.203125
vt 0.031250 0.187500
vt 0.031250 0.281250
vt 0.000000 0.296875
vt 0.000000 0.265625
vt 0.000000 0.171875
vt 0.031250 0.171875
vt 0.250000 0.500000
vt 0.187500 0.500000
vt 0.312500 0.500000
vt 0.062500 0.500000
vt 0.437500 0.500000
vt 0.125000 0.500000
vt 0.375000 0.500000
vt 0.406250 0.562500
vt 0.093750 0.562500
vt 0.156250 0.562500
vt 0.343750 0.562500
vt 0.281250 0.562500
vt 0.218750 0.562500
s 0
f 1/1/1 7/2/1 23/3/1
f 8/4/2 7/2/2 1/1/2
f 8/4/3 9/5/3 7/2/3
f 7/2/4 9/5/4 5/6/4
f 11/7/5 5/6/5 9/5/5
f 1/1/6 23/3/6 19/8/6
f 5/6/7 11/7/7 10/9/7
f 19/8/8 23/3/8 18/10/8
f 10/9/9 11/7/9 20/11/9
f 19/8/10 18/10/10 31/12/10
f 20/11/11 12/13/11 30/14/11
f 30/15/12 12/16/12 31/12/12
f 31/12/13 18/10/13 30/15/13
f 20/11/14 30/14/14 10/9/14
f 30/14/15 4/17/15 25/18/15
f 30/15/16 18/10/16 3/19/16
f 30/14/17 25/18/17 10/9/17
f 4/20/18 30/15/18 3/19/18
f 5/6/19 10/9/19 2/21/19
f 3/19/20 18/10/20 29/22/20
f 23/3/21 29/22/21 18/10/21
f 25/18/22 2/21/22 10/9/22
f 6/23/23 5/6/23 2/24/23
f 23/3/24 6/23/24 29/25/24
f 5/6/25 6/23/25 7/2/25
f 23/3/26 7/2/26 6/23/26
f 25/18/27 32/26/27 2/21/27
f 26/27/28 3/19/28 29/22/28
f 32/26/29 25/18/29 28/28/29
f 3/19/30 26/27/30 27/29/30
f 25/18/31 24/30/31 28/28/31
f 24/31/32 3/19/32 27/29/32
f 4/20/33 3/19/33 24/31/33
f 4/17/34 24/30/34 25/18/34
f 22/32/35 2/21/35 32/26/35
f 29/22/36 21/33/36 26/27/36
f 28/34/37 24/35/37 27/36/37
f 21/33/38 29/25/38 14/37/38
f 6/23/39 2/24/39 14/37/39
f 22/32/40 14/37/40 2/24/40
f 6/23/41 14/37/41 29/25/41
f 15/38/42 21/33/42 14/37/42
f 22/32/43 17/39/43 14/37/43
f 16/40/43 14/37/43 17/39/43
f 14/37/42 16/40/42 15/38/42
f 16/41/44 17/42/44 15/43/44
f 17/42/45 22/44/45 13/45/45
f 21/46/46 15/43/46 13/45/46
f 13/45/47 22/44/47 21/46/47
f 17/42/48 13/45/48 15/43/48
f 32/47/49 21/48/49 22/49/49
f 28/34/50 26/50/50 32/47/50
f 32/47/49 26/50/49 21/48/49
f 28/34/50 27/36/50 26/50/50
f 34/51/51 35/52/51 33/53/51
f 35/54/52 34/51/52 36/55/52
f 35/56/53 36/55/53 33/57/53
f 38/58/54 39/59/54 37/60/54
f 39/61/52 38/58/52 40/62/52
f 39/63/55 40/62/55 37/64/55
f 30/65/56 42/66/56 41/67/56
f 42/68/57 30/69/57 43/70/57
f 42/71/58 43/70/58 41/72/58
f 43/73/59 44/74/59 41/67/59
f 30/69/60 44/75/60 43/73/60
f 41/72/61 44/76/61 30/77/61
f 8/4/62 1/1/62 50/78/62
f 8/4/63 50/78/63 9/5/63
f 49/79/64 9/5/64 50/78/64
f 45/80/65 50/78/65 1/1/65
f 20/11/66 47/81/66 12/13/66
f 31/12/67 12/16/67 47/82/67
f 48/83/68 47/81/68 20/11/68
f 46/84/69 31/12/69 47/82/69
f 19/8/70 31/12/70 46/84/70
f 11/7/71 48/83/71 20/11/71
f 11/7/72 9/5/72 49/79/72
f 1/1/73 19/8/73 45/80/73
f 46/84/74 45/80/74 19/8/74
f 48/83/75 11/7/75 49/79/75
f 47/82/76 51/85/76 46/84/76
f 47/81/76 48/83/76 51/86/76
f 49/79/76 51/87/76 48/83/76
f 45/80/76 46/84/76 51/88/76
f 50/78/76 45/80/76 51/89/76
f 50/78/76 51/90/76 49/79/76
