# Blender 4.4.1
# www.blender.org
mtllib Tank_Head.mtl
o Tank_Head
v 0.000000 0.000000 0.750000
v -0.000000 0.000000 -0.750000
v -0.000000 -0.250000 -0.250000
v -0.000000 0.250000 -0.250000
v -0.500000 0.000000 -0.250000
v 0.500000 0.000000 -0.250000
vn 0.4364 0.8729 0.2182
vn -0.4082 0.8165 -0.4082
vn -0.4082 -0.8165 -0.4082
vn 0.4364 -0.8729 0.2182
vn 0.4082 -0.8165 -0.4082
vn -0.4364 -0.8729 0.2182
vn -0.4364 0.8729 0.2182
vn 0.4082 0.8165 -0.4082
vt 0.312500 0.500000
vt 0.250000 1.000000
vt 0.000000 0.500000
vt 0.687500 0.500000
vt 0.593750 1.000000
vt 0.500000 0.500000
vt 0.593750 0.000000
vt 0.250000 0.000000
vt 0.406250 0.000000
vt 1.000000 0.500000
vt 0.750000 0.000000
vt 0.750000 1.000000
vt 0.406250 1.000000
s 0
usemtl Material.002
f 6/1/1 4/2/1 1/3/1
f 5/4/2 4/5/2 2/6/2
f 2/6/3 3/7/3 5/4/3
f 3/8/4 6/1/4 1/3/4
f 3/9/5 2/6/5 6/1/5
f 1/10/6 5/4/6 3/11/6
f 1/10/7 4/12/7 5/4/7
f 6/1/8 2/6/8 4/13/8
