# Blender v2.92.0 OBJ File: 'Cube.blend'
# www.blender.org
mtllib CubeQ.mtl
o Cube
v 0.320000 0.320000 -0.320000
v 0.320000 -0.320000 -0.320000
v 0.320000 0.320000 0.320000
v 0.320000 -0.320000 0.320000
v -0.320000 0.320000 -0.320000
v -0.320000 -0.320000 -0.320000
v -0.320000 0.320000 0.320000
v -0.320000 -0.320000 0.320000
v -0.320000 -0.320000 -0.320000
v -0.320000 -0.320000 -0.320000
v -0.320000 -0.320000 0.320000
v -0.320000 -0.320000 0.320000
v 0.320000 -0.320000 -0.320000
v 0.320000 -0.320000 -0.320000
v 0.320000 0.320000 -0.320000
v 0.320000 0.320000 -0.320000
v -0.320000 0.320000 0.320000
v -0.320000 0.320000 0.320000
v 0.320000 0.320000 0.320000
v 0.320000 0.320000 0.320000
v 0.320000 -0.320000 0.320000
v 0.320000 -0.320000 0.320000
v -0.320000 0.320000 -0.320000
v -0.320000 0.320000 -0.320000
vt 0.666667 1.000000
vt 0.333333 1.000000
vt 0.333333 0.500000
vt 0.666667 0.500000
vt 0.333333 1.000000
vt 0.000000 1.000000
vt 0.000000 0.500000
vt 0.333333 0.500000
vt 0.333333 0.000000
vt 0.333333 0.500000
vt 0.000000 0.500000
vt 0.000000 0.000000
vt 0.666667 0.500000
vt 0.333333 0.500000
vt 0.333333 0.000000
vt 0.666667 0.000000
vt 1.000000 0.500000
vt 1.000000 1.000000
vt 0.666667 1.000000
vt 0.666667 0.500000
vt 1.000000 0.500000
vt 0.666667 0.500000
vt 0.666667 0.000000
vt 1.000000 0.000000
vn 1.0000 0.0000 0.0000
vn -1.0000 0.0000 0.0000
vn 0.0000 1.0000 0.0000
vn 0.0000 0.0000 -1.0000
vn 0.0000 -1.0000 0.0000
vn 0.0000 0.0000 1.0000
usemtl Cube
s off
f 15/1/1 3/2/1 4/3/1 14/4/1
f 7/5/2 23/6/2 9/7/2 11/8/2
f 24/9/3 18/10/3 20/11/3 16/12/3
f 5/13/4 1/14/4 2/15/4 6/16/4
f 13/17/5 22/18/5 8/19/5 10/20/5
f 19/21/6 17/22/6 12/23/6 21/24/6
